<svg id="Layer_1" data-name="Layer 1" xmlns="http://www.w3.org/2000/svg" viewBox="0 0 2579.73 550"><defs><style>.cls-1{fill:#fff;}</style></defs><circle class="cls-1" cx="200" cy="275" r="50"/><circle class="cls-1" cx="350" cy="50" r="50"/><circle class="cls-1" cx="50" cy="500" r="50"/><circle class="cls-1" cx="200" cy="50" r="50"/><circle class="cls-1" cx="200" cy="150" r="50"/><rect class="cls-1" x="150" y="50" width="100" height="100"/><circle class="cls-1" cx="200" cy="400" r="50"/><circle class="cls-1" cx="200" cy="500" r="50"/><rect class="cls-1" x="150" y="400" width="100" height="100"/><circle class="cls-1" cx="50" cy="50" r="50"/><circle class="cls-1" cx="50" cy="375" r="50"/><rect class="cls-1" y="50" width="100" height="325"/><circle class="cls-1" cx="350" cy="175" r="50"/><circle class="cls-1" cx="350" cy="500" r="50"/><rect class="cls-1" x="300" y="175" width="100" height="325"/><path class="cls-1" d="M754.25,75.22,781,171.05l27.38-95.83h61.9l-60.71,197L842.94,390.1,933.42,75.22h79.76L890.56,474H810.2l-31-103.57L747.7,474H667.35L550.08,75.22h79.17l90.48,310.12,31.55-110.72L692.94,75.22Z" transform="translate(-0.08 -0.22)"/><path class="cls-1" d="M1001.27,328.79a162,162,0,0,1,10.12-57.74,150.42,150.42,0,0,1,27.68-46.72,131.17,131.17,0,0,1,41.37-31.55,115.21,115.21,0,0,1,51.19-11.61A109.08,109.08,0,0,1,1181,192.48a127.53,127.53,0,0,1,39.28,30.36V182.36h74.41V474h-74.41V433.55A119.93,119.93,0,0,1,1181,464.21a111.27,111.27,0,0,1-49.41,11,115.21,115.21,0,0,1-51.19-11.61,133.11,133.11,0,0,1-41.37-31.25,146.5,146.5,0,0,1-27.68-46.43A160.2,160.2,0,0,1,1001.27,328.79Zm74.41,0a73,73,0,0,0,5.36,28,69,69,0,0,0,15.17,22.91,74,74,0,0,0,22.62,15.48,72.82,72.82,0,0,0,56.25,0,72.73,72.73,0,0,0,38.4-38.39,70,70,0,0,0,5.65-28A73.06,73.06,0,0,0,1198,277.3a73,73,0,0,0-22.92-15.47,72.71,72.71,0,0,0-56.25,0,74,74,0,0,0-22.62,15.47A68.4,68.4,0,0,0,1081,300.52,75.28,75.28,0,0,0,1075.68,328.79Z" transform="translate(-0.08 -0.22)"/><path class="cls-1" d="M1315.56,181.17H1334V99.62h74.4v81.55h40.48v61.31h-40.48V378.79q0,31,32.15,30.95v65.48q-56,0-81.25-23.21T1334,378.79V242.48h-18.45Z" transform="translate(-0.08 -0.22)"/><path class="cls-1" d="M1734.6,403.2q-26.79,39.29-60.42,55.65a163,163,0,0,1-72.32,16.37,142.08,142.08,0,0,1-57.14-11.61A145.91,145.91,0,0,1,1467,385.93a142.08,142.08,0,0,1-11.61-57.14A143.64,143.64,0,0,1,1467,271.05a152.06,152.06,0,0,1,31.25-46.72,145.8,145.8,0,0,1,46.43-31.55,142.08,142.08,0,0,1,57.14-11.61A164.91,164.91,0,0,1,1676,198.73q35.4,17.57,62.2,59.82L1580.43,398.43q5.94,3,17.26,4.17a62.22,62.22,0,0,0,22.62-1.79,108.77,108.77,0,0,0,35.12-16.36A117.79,117.79,0,0,0,1684.6,355Zm-208.34-85.72q-3,15.5.3,28.27t9.82,19.35l104.77-98.81q-7.76-6.54-20.54-11t-28.87-2.68q-26.21,3.57-43.45,20.24T1526.26,317.48Z" transform="translate(-0.08 -0.22)"/><path class="cls-1" d="M1840.55,182.36v41.07a109.94,109.94,0,0,1,31.84-30.06q19.33-12.18,44.94-12.2v75a76.15,76.15,0,0,0-27.08,5.06,83.69,83.69,0,0,0-24.11,14,81.61,81.61,0,0,0-17.85,20.83,52.56,52.56,0,0,0-7.74,25V474h-73.81V182.36Z" transform="translate(-0.08 -0.22)"/><path class="cls-1" d="M1919.12,181.17h19V180a141.35,141.35,0,0,1,5.36-39,81.76,81.76,0,0,1,17.56-32.44q12.2-13.68,32.44-20.24t50-3V140.7q-14.88-1.2-23.21,6.84T2012,169.86v11.31h33.34v61.31H2012V474h-73.81V242.48h-19Z" transform="translate(-0.08 -0.22)"/><path class="cls-1" d="M2053,328.79a162,162,0,0,1,10.12-57.74,150.23,150.23,0,0,1,27.68-46.72,131.17,131.17,0,0,1,41.37-31.55,115.18,115.18,0,0,1,51.19-11.61,109,109,0,0,1,49.4,11.31,127.57,127.57,0,0,1,39.29,30.36V182.36h74.4V474h-74.4V433.55a120,120,0,0,1-39.29,30.66,111.23,111.23,0,0,1-49.4,11,115.18,115.18,0,0,1-51.19-11.61,133.11,133.11,0,0,1-41.37-31.25,146.31,146.31,0,0,1-27.68-46.43A160.2,160.2,0,0,1,2053,328.79Zm74.4,0a73.21,73.21,0,0,0,5.36,28A68.85,68.85,0,0,0,2148,379.68a73.91,73.91,0,0,0,22.62,15.48,72.82,72.82,0,0,0,56.25,0,72.76,72.76,0,0,0,38.39-38.39,69.83,69.83,0,0,0,5.66-28,73.13,73.13,0,0,0-21.14-51.49,72.94,72.94,0,0,0-22.91-15.47,72.71,72.71,0,0,0-56.25,0A73.88,73.88,0,0,0,2148,277.3a68.27,68.27,0,0,0-15.18,23.22A75.48,75.48,0,0,0,2127.44,328.79Z" transform="translate(-0.08 -0.22)"/><path class="cls-1" d="M2462.56,99.62V474h-73.81V99.62Z" transform="translate(-0.08 -0.22)"/><path class="cls-1" d="M2579.82,99.62V474H2506V99.62Z" transform="translate(-0.08 -0.22)"/></svg>